<svg xmlns="http://www.w3.org/2000/svg" xmlns:xlink="http://www.w3.org/1999/xlink" preserveAspectRatio="xMidYMid" width="640" height="305" viewBox="0 0 640 305">
  <defs>
    <style>
      .cls-1 {
        fill: #77a5b4;
        stroke: #c1c1c1;
      }

      .cls-1, .cls-2 {
        stroke-width: 1px;
      }

      .cls-2, .cls-3, .cls-4, .cls-5, .cls-6 {
        fill: #fff;
      }

      .cls-2 {
        stroke: #fff;
      }

      .cls-2, .cls-3, .cls-4, .cls-5, .cls-6, .cls-7 {
        fill-rule: evenodd;
      }

      .cls-4 {
        opacity: 0.7;
      }

      .cls-5 {
        opacity: 0.85;
      }

      .cls-6 {
        opacity: 0.9;
      }

      .cls-7 {
        fill: #000;
        opacity: 0.45;
      }
    </style>
  </defs>
  <g>
    <rect x="-12" width="665" height="305" class="cls-1"/>
    <path d="M269.500,189.000 C269.500,199.477 293.724,208.000 323.500,208.000 C353.276,208.000 377.500,199.477 377.500,189.000 C377.500,178.523 353.276,170.000 323.500,170.000 C293.724,170.000 269.500,178.523 269.500,189.000 ZM273.820,189.000 C273.820,179.362 296.106,171.520 323.500,171.520 C350.894,171.520 373.180,179.362 373.180,189.000 C373.180,198.638 350.894,206.480 323.500,206.480 C296.106,206.480 273.820,198.638 273.820,189.000 Z" class="cls-2"/>
    <path d="M322.353,132.052 L324.585,132.052 L325.463,286.999 L321.474,286.999 L322.353,132.052 Z" class="cls-3"/>
    <path d="M551.133,130.302 L553.365,130.302 L734.345,286.999 L730.356,286.999 L551.133,130.302 Z" class="cls-3"/>
    <path d="M93.625,130.302 L95.857,130.302 L-83.325,286.999 L-87.313,286.999 L93.625,130.302 Z" class="cls-3"/>
    <path d="M-88.563,288.015 L-86.293,286.050 L733.264,286.050 L735.535,288.015 L-88.563,288.015 Z" class="cls-3"/>
    <path d="M93.193,132.048 L93.926,130.016 L553.030,130.016 L553.763,132.048 L93.193,132.048 Z" class="cls-4"/>
    <path d="M564.735,234.286 L561.337,234.286 L496.576,151.783 L499.048,151.783 L564.735,234.286 Z" class="cls-3"/>
    <path d="M605.731,206.426 L608.912,206.426 L570.393,169.293 L567.640,169.293 L605.731,206.426 Z" class="cls-3"/>
    <path d="M627.872,195.695 L626.876,194.085 L642.428,194.085 L643.488,195.695 L627.872,195.695 Z" class="cls-3"/>
    <path d="M642.825,194.624 L639.872,194.624 L620.732,178.891 L623.509,178.891 L642.825,194.624 Z" class="cls-3"/>
    <path d="M607.297,208.018 L606.089,206.011 L638.353,206.011 L639.699,208.018 L607.297,208.018 Z" class="cls-5"/>
    <path d="M568.536,169.994 L567.625,168.479 L595.697,168.479 L596.712,169.994 L568.536,169.994 Z" class="cls-3"/>
    <path d="M497.143,153.450 L496.548,152.186 L577.166,152.186 L578.038,153.450 L497.143,153.450 Z" class="cls-6"/>
    <path d="M563.111,235.961 L562.016,234.155 L670.989,234.155 L672.597,235.961 L563.111,235.961 Z" class="cls-6"/>
    <path d="M610.069,179.867 L609.296,178.529 L622.072,178.529 L622.894,179.867 L610.069,179.867 Z" class="cls-3"/>
    <path d="M82.453,234.286 L85.850,234.286 L150.612,151.783 L148.139,151.783 L82.453,234.286 Z" class="cls-3"/>
    <path d="M41.457,206.426 L38.275,206.426 L76.795,169.293 L79.547,169.293 L41.457,206.426 Z" class="cls-3"/>
    <path d="M19.315,195.695 L20.311,194.085 L4.759,194.085 L3.699,195.695 L19.315,195.695 Z" class="cls-3"/>
    <path d="M4.362,194.624 L7.315,194.624 L26.455,178.891 L23.679,178.891 L4.362,194.624 Z" class="cls-3"/>
    <path d="M39.891,208.018 L41.098,206.011 L8.834,206.011 L7.488,208.018 L39.891,208.018 Z" class="cls-5"/>
    <path d="M78.651,169.994 L79.562,168.479 L51.490,168.479 L50.475,169.994 L78.651,169.994 Z" class="cls-3"/>
    <path d="M150.044,153.450 L150.639,152.186 L70.021,152.186 L69.149,153.450 L150.044,153.450 Z" class="cls-6"/>
    <path d="M84.076,235.961 L85.172,234.155 L-23.802,234.155 L-25.410,235.961 L84.076,235.961 Z" class="cls-6"/>
    <path d="M37.119,179.867 L37.891,178.529 L25.115,178.529 L24.294,179.867 L37.119,179.867 Z" class="cls-3"/>
    <path d="M717.500,274.000 L719.500,276.000 C713.529,276.784 713.095,275.881 709.500,278.000 C706.119,279.993 707.500,286.000 707.500,286.000 C707.500,286.000 706.891,286.000 705.500,286.000 C704.177,285.964 702.935,279.905 707.500,276.000 C711.004,273.002 717.500,274.000 717.500,274.000 Z" class="cls-3"/>
    <path d="M-70.393,274.124 L-72.500,276.103 C-66.210,276.879 -65.753,275.985 -61.965,278.082 C-58.404,280.054 -59.858,286.000 -59.858,286.000 C-59.858,286.000 -59.216,286.000 -57.751,286.000 C-56.358,285.965 -55.050,279.968 -59.858,276.103 C-63.550,273.136 -70.393,274.124 -70.393,274.124 Z" class="cls-3"/>
    <path d="M729.978,285.000 L-82.666,285.000 L22.845,193.932 L7.490,193.932 L24.691,179.922 L39.077,179.922 L94.600,132.000 L552.688,132.000 L608.218,179.922 L621.954,179.922 L637.538,192.932 L624.441,193.922 L729.978,285.000 Z" class="cls-7"/>
  </g>
</svg>
